<svg xmlns="http://www.w3.org/2000/svg" width="64" height="64" id="food"><g fill="none" fill-rule="evenodd"><path fill="#E4B382" d="M31.719 41.22c-4.958 0-8.975-4.027-8.975-8.992 0-4.967 4.017-8.993 8.975-8.993 4.957 0 8.975 4.026 8.975 8.993 0 4.965-4.018 8.991-8.975 8.991m0-39.241c-16.677 0-30.195 13.543-30.195 30.25 0 16.706 13.518 30.249 30.195 30.249 16.676 0 30.195-13.543 30.195-30.25 0-16.706-13.519-30.25-30.195-30.25"></path><path fill="#EE64A4" d="M31.719 41.22c-4.958 0-8.975-4.027-8.975-8.992 0-4.967 4.017-8.993 8.975-8.993 4.957 0 8.975 4.026 8.975 8.993 0 4.965-4.018 8.991-8.975 8.991m0-39.241c-16.677 0-30.195 13.543-30.195 30.25 0 7.966 3.08 15.21 8.104 20.611.032-.211.06-.426.06-.648v-2.425a4.278 4.278 0 0 1 4.273-4.282 4.278 4.278 0 0 1 4.274 4.282v2.425a4.277 4.277 0 0 0 4.274 4.282 4.277 4.277 0 0 0 4.273-4.282v-1.208c0-2.365 1.813-4.281 4.174-4.281a4.277 4.277 0 0 1 4.273 4.281v1.208a4.278 4.278 0 0 0 4.273 4.282 4.277 4.277 0 0 0 4.274-4.282v-2.425a4.278 4.278 0 0 1 4.274-4.282 4.278 4.278 0 0 1 4.274 4.282v2.425c0 .632.144 1.227.389 1.767 5.67-5.499 9.2-13.2 9.2-21.73 0-16.707-13.518-30.25-30.194-30.25"></path><path fill="#010202" d="M56.398 14.808a30.267 30.267 0 0 1 1.452 9.278c0 16.706-13.519 30.25-30.194 30.25-10.2 0-19.213-5.072-24.679-12.83 3.91 12.165 15.297 20.971 28.742 20.971 16.676 0 30.195-13.543 30.195-30.25a30.133 30.133 0 0 0-5.516-17.419" opacity=".3"></path><path fill="#2E2E30" d="M11.205 52.266c0-.026.006-.05.006-.074v-2.426a2.756 2.756 0 0 1 2.75-2.755 2.756 2.756 0 0 1 2.75 2.755v2.426c0 3.202 2.602 5.807 5.797 5.807 3.197 0 5.797-2.605 5.797-5.807v-1.21c0-1.544 1.164-2.754 2.65-2.754a2.756 2.756 0 0 1 2.75 2.754v1.21c0 3.202 2.601 5.807 5.798 5.807 3.196 0 5.797-2.605 5.797-5.807v-2.426a2.756 2.756 0 0 1 2.75-2.755 2.756 2.756 0 0 1 2.75 2.755v2.426c0 .443.055.882.158 1.313-5.09 4.625-11.842 7.446-19.239 7.446-8.034 0-15.304-3.333-20.514-8.685M31.719 3.505c15.81 0 28.671 12.885 28.671 28.722 0 .752-.04 1.497-.095 2.24-.012.149-.021.3-.035.449-.062.672-.15 1.338-.258 2-.037.222-.077.444-.12.664a27.879 27.879 0 0 1-.38 1.745c-.076.298-.162.591-.247.885a28.35 28.35 0 0 1-.873 2.558c-.112.281-.224.563-.344.841a28.756 28.756 0 0 1-1.136 2.339 28.51 28.51 0 0 1-1.163 1.936 29.452 29.452 0 0 1-1.562 2.167c-.11.14-.216.283-.33.42v-.705c0-3.202-2.6-5.808-5.797-5.808-3.196 0-5.798 2.606-5.798 5.808v2.426a2.755 2.755 0 0 1-2.749 2.754 2.756 2.756 0 0 1-2.75-2.754v-1.21c0-3.201-2.602-5.808-5.798-5.808-3.194 0-5.698 2.552-5.698 5.808v1.21a2.754 2.754 0 0 1-2.749 2.754 2.756 2.756 0 0 1-2.75-2.754v-2.426c0-3.202-2.6-5.808-5.797-5.808-2.837 0-5.203 2.053-5.7 4.754-.062-.089-.127-.175-.188-.265-.31-.454-.612-.914-.895-1.383-.118-.195-.229-.397-.342-.595-.212-.37-.415-.744-.61-1.123-.098-.19-.2-.381-.295-.576a27.705 27.705 0 0 1-.71-1.587c-.076-.181-.146-.365-.217-.548a27.86 27.86 0 0 1-.528-1.471c-.037-.112-.078-.223-.114-.337a28.377 28.377 0 0 1-.607-2.279 28.75 28.75 0 0 1-.357-1.842c-.004-.026-.01-.052-.013-.078a28.845 28.845 0 0 1-.261-2.417 29.234 29.234 0 0 1-.077-1.984C3.047 16.39 15.91 3.505 31.72 3.505m22.477 51.12c5.959-5.997 9.242-13.922 9.242-22.398 0-17.52-14.23-31.775-31.719-31.775C14.23.452 0 14.707 0 32.227c0 .526.015 1.05.04 1.572.01.184.028.366.04.55.021.335.044.67.076 1.003.022.216.051.431.076.647.036.298.07.595.113.891.033.222.072.441.11.662.049.289.098.579.155.866.042.213.09.423.135.635a27.25 27.25 0 0 0 .358 1.463c.083.31.17.618.262.924.052.17.106.338.16.507a31.178 31.178 0 0 0 .904 2.463c.044.106.088.213.134.319.163.381.334.759.513 1.134l.103.218c.197.405.402.805.616 1.202l.067.125c.23.424.471.843.721 1.256l.026.043a31.958 31.958 0 0 0 3.905 5.174c.027.03.062.047.091.073 5.79 6.18 14.008 10.05 23.115 10.05 8.51 0 16.243-3.382 21.945-8.866.036-.029.075-.051.109-.083.115-.11.221-.228.334-.34l.089-.09"></path><path fill="#2E2E30" d="M31.72 24.762c4.108 0 7.45 3.35 7.45 7.465 0 4.117-3.342 7.465-7.45 7.465-4.11 0-7.453-3.348-7.453-7.465 0-4.115 3.343-7.465 7.452-7.465m0 17.983c5.789 0 10.5-4.718 10.5-10.518 0-5.8-4.711-10.518-10.5-10.518-5.79 0-10.5 4.718-10.5 10.518 0 5.8 4.71 10.518 10.5 10.518"></path><path fill="#FEFEFE" d="M22.143 47.904a1.528 1.528 0 0 1-1.344-2.244l1.693-3.187a1.524 1.524 0 1 1 2.69 1.435l-1.693 3.187c-.273.515-.802.809-1.346.809m23.049-20.17a1.525 1.525 0 0 1-1.462-1.96l1.018-3.46a1.527 1.527 0 0 1 1.892-1.033 1.526 1.526 0 0 1 1.03 1.896l-1.019 3.463a1.524 1.524 0 0 1-1.46 1.095m-5.654 21.113h-.02a1.526 1.526 0 0 1-1.504-1.546l.045-3.61a1.526 1.526 0 0 1 1.523-1.508h.019a1.527 1.527 0 0 1 1.505 1.546l-.045 3.61a1.526 1.526 0 0 1-1.523 1.508m15.047-6.97c-.45 0-.898-.2-1.198-.583l-2.228-2.839a1.527 1.527 0 0 1 .256-2.143 1.52 1.52 0 0 1 2.138.257l2.229 2.838a1.528 1.528 0 0 1-1.197 2.47m-6.352-7.774c-.8 0-1.47-.624-1.52-1.435a1.525 1.525 0 0 1 1.429-1.616l3.597-.218c.856-.063 1.562.59 1.613 1.431a1.525 1.525 0 0 1-1.428 1.616l-3.597.219a1.457 1.457 0 0 1-.094.003M36.19 20.592a1.528 1.528 0 0 1-1.344-2.244l1.694-3.188a1.523 1.523 0 1 1 2.69 1.434l-1.693 3.188c-.274.516-.802.81-1.347.81m18.55 8.613a1.529 1.529 0 0 1-1.344-2.245l1.693-3.187a1.523 1.523 0 1 1 2.69 1.435l-1.694 3.188c-.273.515-.801.809-1.346.809m-3.117-8.763c-.242 0-.487-.058-.715-.18l-3.182-1.696a1.529 1.529 0 0 1-.629-2.065 1.523 1.523 0 0 1 2.061-.63l3.182 1.696a1.528 1.528 0 0 1-.717 2.875M46.78 40.988c-.242 0-.487-.058-.715-.179l-3.181-1.696a1.528 1.528 0 0 1-.629-2.065 1.524 1.524 0 0 1 2.061-.63l3.18 1.696a1.528 1.528 0 0 1-.716 2.874M42.178 12.28c-.474 0-.94-.22-1.238-.634l-2.108-2.928a1.528 1.528 0 0 1 .346-2.131 1.521 1.521 0 0 1 2.127.345l2.108 2.929a1.528 1.528 0 0 1-1.235 2.419m-10.443 1.726a1.527 1.527 0 0 1-1.459-1.972L31.33 8.58a1.522 1.522 0 0 1 1.903-1.014 1.526 1.526 0 0 1 1.011 1.906l-1.052 3.454a1.526 1.526 0 0 1-1.457 1.08m-14.81 19.59c-.658 0-1.265-.431-1.46-1.097l-1.02-3.462a1.525 1.525 0 0 1 1.031-1.896 1.525 1.525 0 0 1 1.893 1.033l1.017 3.463a1.525 1.525 0 0 1-1.461 1.958m-.681 8.534c-.33 0-.661-.105-.942-.326a1.53 1.53 0 0 1-.255-2.145l2.23-2.837a1.522 1.522 0 0 1 2.139-.255c.66.52.776 1.48.255 2.144l-2.228 2.837a1.52 1.52 0 0 1-1.199.582m3.396-16.126c-.821 0-1.499-.655-1.522-1.482l-.108-3.608a1.525 1.525 0 0 1 1.479-1.571 1.54 1.54 0 0 1 1.568 1.48l.107 3.61a1.525 1.525 0 0 1-1.477 1.57h-.047m7.795-5.72a1.523 1.523 0 0 1-1.346-.808l-1.694-3.188a1.529 1.529 0 0 1 .629-2.065 1.523 1.523 0 0 1 2.061.63l1.694 3.187a1.529 1.529 0 0 1-1.344 2.245M10.07 28.484a1.522 1.522 0 0 1-1.346-.81l-1.693-3.187a1.529 1.529 0 0 1 .629-2.065 1.522 1.522 0 0 1 2.061.63l1.693 3.188a1.528 1.528 0 0 1-1.344 2.244m3.73-10.231a1.528 1.528 0 0 1-.717-2.875l3.182-1.696a1.522 1.522 0 0 1 2.061.63 1.529 1.529 0 0 1-.629 2.065l-3.181 1.697c-.229.12-.474.179-.715.179M7.634 37.685a1.528 1.528 0 0 1-.717-2.874l3.181-1.697a1.523 1.523 0 0 1 2.062.63 1.528 1.528 0 0 1-.63 2.065l-3.18 1.697c-.23.12-.474.179-.716.179M20.88 12.28a1.528 1.528 0 0 1-1.235-2.42l2.108-2.928a1.521 1.521 0 0 1 2.127-.345c.684.493.837 1.447.345 2.13l-2.108 2.929a1.52 1.52 0 0 1-1.237.634"></path></g></svg>