<svg xmlns="http://www.w3.org/2000/svg" viewBox="0 0 47.5 47.5" id="food"><defs><clipPath id="a"><path d="M0 38h38V0H0v38Z"></path></clipPath><clipPath id="b"><path d="M6.727 31.382c-.477-.233-.54-.84-.414-1.278C6.438 29.667 17 3 17 3s1-2 2-2c1.104 0 2 2 2 2l10.704 27.221s.213.842-.569 1.229C29.391 32.311 25.047 34 19 34c-6.213 0-10.616-1.81-12.273-2.618"></path></clipPath></defs><g clip-path="url(#a)" transform="matrix(1.25 0 0 -1.25 0 47.5)"><path fill="#f4900c" d="M19 33c7.257 0 13-4 14.699-2 .197.323.301.657.301 1 0 2-6.716 5-15 5-8.284 0-15-3-15-5 0-.343.104-.677.301-1C6 29 11.743 33 19 33"></path><path fill="#ffcc4d" d="M19 34c-6.213 0-10.616-1.81-12.273-2.618-.477-.233-.54-.84-.415-1.278C6.437 29.667 17 3 17 3s.896-2 2-2 2 2 2 2l10.704 27.221s.213.841-.569 1.228C29.392 32.311 25.047 34 19 34"></path></g><g fill="#be1931" clip-path="url(#b)" transform="matrix(1.25 0 0 -1.25 0 47.5)"><path d="M19 6a4 4 0 1 0-8.002.002A4 4 0 0 0 19 6M18 17a4 4 0 1 0-7.998.002A4 4 0 0 0 18 17M21 29a4 4 0 1 0-8.002.002A4 4 0 0 0 21 29M30 24a4 4 0 1 0-8.002.002A4 4 0 0 0 30 24M28 12c0-2.208-1.792-4-4-4s-4 1.792-4 4 1.792 4 4 4 4-1.792 4-4M11 25a4 4 0 1 0-8 0 4 4 0 0 0 8 0"></path></g></svg>