<svg xmlns="http://www.w3.org/2000/svg" width="32" height="32" id="food"><path fill="#faa41a" stroke="#383747" style="line-height:normal;-inkscape-font-specification:Sans;text-indent:0;text-align:start;text-decoration-line:none;text-transform:none;block-progression:tb;marker:none" d="M-2049.783 898.165c-8.267 0-14.969 6.702-14.969 14.969 0 8.266 6.702 14.968 14.969 14.968s14.969-6.702 14.969-14.968c0-8.267-6.702-14.97-14.97-14.97zm0 8.375a6.595 6.595 0 0 1 0 13.188 6.595 6.595 0 0 1 0-13.188z" color="#000" font-family="Sans" font-weight="400" overflow="visible" transform="translate(2065.783 -897.134)"></path><path fill="#fff" stroke="#fff" stroke-linecap="round" stroke-linejoin="round" d="M5.328 12.022c1.293.642 1.383 1.183 1.656 1.739m-.361-3.189c1.334-.551 1.8-.264 2.398-.104m-3.778-1.57c-.341 1.402-.848 1.61-1.33 1.998m8.79-2.423c-.126-1.438.288-1.797.62-2.32M9.542 8.331c1.293.642 1.383 1.183 1.656 1.739m.084-5.157c.57-1.326 1.105-1.446 1.645-1.748M10.27 4.77c-.342 1.402-.849 1.61-1.33 1.998m8.405 1.065c.891-1.136 1.439-1.115 2.038-1.269m-4.002-.798c.506 1.352.203 1.809.022 2.401m3.584-3.709c1.322-.579 1.795-.301 2.396-.153M17.47 3.099c-1.207.791-1.72.596-2.337.551m6.392 3.32c-.31 1.41-.813 1.63-1.286 2.029m5.023-1.169c1.425.233 1.671.723 2.095 1.173m-4.754-.96c.858 1.16.693 1.682.682 2.301m1.872-3.53c-1.444.01-1.768-.433-2.261-.807m1.83 5.179c-.85 1.166-1.399 1.164-1.993 1.339m4.506 1.327c1.21.786 1.239 1.334 1.446 1.917m-.57-3.265c-1.326-.573-1.444-1.108-1.746-1.649m-.414 4.982c-1.418.267-1.816-.11-2.369-.388m3.543 4.976c.345 1.402-.01 1.82-.258 2.387m-.25-4.314c-.73 1.245-1.276 1.297-1.85 1.53m3.252-.098c-.574-1.325-.294-1.797-.143-2.397M2.91 16.419c.967 1.072.853 1.608.903 2.225m2.42-3.071c-1.419.267-1.817-.11-2.37-.389m3.169 3.476c.344 1.402-.01 1.82-.258 2.387m1.651-3.632c-.573-1.325-.293-1.796-.143-2.397m1.706 5.738c-.345 1.402.01 1.82.258 2.387m11.302-2.087c-.998 1.043-.9 1.582-.967 2.197m4.788-1.373c-1.402.344-1.82-.01-2.387-.258M5.41 22.788c-.937-1.098-.809-1.63-.841-2.249"></path><path fill="none" stroke="#383747" d="M4.685 25.216s1.677-1.705 3.41-1.705c1.734 0 2.17 1.465 4.069 1.465 1.9 0 1.603-1.465 3.65-1.465 2.046 0 2.125 1.465 4.008 1.465s1.641-1.553 3.41-1.465c1.77.088 3.77 1.944 3.77 1.944"></path></svg>